<svg width="49" height="37" viewBox="0 0 49 37" fill="none" xmlns="http://www.w3.org/2000/svg">
<path d="M16.1145 0.117188H30.274C31.9608 0.117188 33.5746 0.336149 35.1155 0.774071C36.6725 1.21199 38.1161 1.82833 39.446 2.62308C40.7922 3.41783 42.0087 4.37477 43.0954 5.4939C44.1983 6.59682 45.139 7.82949 45.9176 9.19192C46.6961 10.5543 47.2962 12.0222 47.7179 13.5955C48.1396 15.1687 48.3505 16.8069 48.3505 18.5099C48.3505 20.213 48.1396 21.8511 47.7179 23.4244C47.2962 24.9977 46.6961 26.4736 45.9176 27.8523C45.139 29.2147 44.1983 30.4636 43.0954 31.599C42.0087 32.7181 40.7922 33.6831 39.446 34.4941C38.1161 35.2889 36.6725 35.9052 35.1155 36.3431C33.5746 36.781 31.9608 37 30.274 37H16.1145V30.3338H19.0583V6.80767H16.1145V0.117188ZM27.1356 6.80767V30.3338H30.2253C31.5391 30.3338 32.7799 30.0257 33.9477 29.4093C35.1155 28.793 36.1292 27.9577 36.9888 26.9035C37.8484 25.833 38.5296 24.5841 39.0324 23.1568C39.5352 21.7133 39.7866 20.1643 39.7866 18.5099C39.7866 16.8718 39.5352 15.3391 39.0324 13.9117C38.5296 12.4844 37.8484 11.2437 36.9888 10.1894C36.1292 9.13515 35.1155 8.30796 33.9477 7.70785C32.7799 7.10773 31.5391 6.80767 30.2253 6.80767H27.1356Z" fill="#F2C94C"/>
<path d="M32.8854 0.117188H18.7259C17.0391 0.117188 15.4252 0.336149 13.8844 0.774071C12.3273 1.21199 10.8838 1.82833 9.55384 2.62308C8.20763 3.41783 6.99118 4.37477 5.90448 5.4939C4.80157 6.59682 3.86085 7.82949 3.08232 9.19192C2.30379 10.5543 1.70367 12.0222 1.28197 13.5955C0.860266 15.1687 0.649414 16.8069 0.649414 18.5099C0.649414 20.213 0.860266 21.8511 1.28197 23.4244C1.70367 24.9977 2.30379 26.4736 3.08232 27.8523C3.86085 29.2147 4.80157 30.4636 5.90448 31.599C6.99118 32.7181 8.20763 33.6831 9.55384 34.4941C10.8838 35.2889 12.3273 35.9052 13.8844 36.3431C15.4252 36.781 17.0391 37 18.7259 37H32.8854V30.3338H29.9416V6.80767H32.8854V0.117188ZM21.8643 6.80767V30.3338H18.7745C17.4608 30.3338 16.22 30.0257 15.0522 29.4093C13.8844 28.793 12.8707 27.9577 12.0111 26.9035C11.1514 25.833 10.4702 24.5841 9.96743 23.1568C9.46463 21.7133 9.21323 20.1643 9.21323 18.5099C9.21323 16.8718 9.46463 15.3391 9.96743 13.9117C10.4702 12.4844 11.1514 11.2437 12.0111 10.1894C12.8707 9.13515 13.8844 8.30796 15.0522 7.70785C16.22 7.10773 17.4608 6.80767 18.7745 6.80767H21.8643Z" fill="#F2F2F2"/>
</svg>
