<?xml version="1.0" standalone="no"?>
<!DOCTYPE svg PUBLIC "-//W3C//DTD SVG 20010904//EN"
 "http://www.w3.org/TR/2001/REC-SVG-20010904/DTD/svg10.dtd">
<svg version="1.0" xmlns="http://www.w3.org/2000/svg"
 width="54.000000pt" height="54.000000pt" viewBox="0 0 54.000000 54.000000"
 preserveAspectRatio="xMidYMid meet">

<g transform="translate(0.000000,54.000000) scale(0.100000,-0.100000)"
fill="#000000" stroke="none">
<path d="M212 450 c-48 -45 -39 -113 20 -145 35 -19 38 -19 73 -2 58 28 71 86
29 136 -32 38 -87 43 -122 11z"/>
<path d="M155 204 c-59 -22 -85 -51 -85 -96 l0 -38 198 2 197 3 3 34 c4 43
-24 74 -86 95 -56 20 -174 20 -227 0z"/>
</g>
</svg>
